#N canvas 409 0 1398 912 8;
#X obj 230 3 r duracao;
#X obj 4 60 r freq;
#X obj 51 272 *~;
#X obj 51 300 dac~;
#X obj 4 131 osc~ 440;
#X obj 51 131 osc~ 440;
#X obj 98 131 osc~ 440;
#X obj 145 131 osc~ 440;
#X obj 51 105 * 3;
#X obj 98 106 * 5;
#X obj 145 106 * 7;
#X obj 4 38 s freq;
#X obj 4 4 nbx 5 14 -1e+37 1e+37 0 0 empty empty empty 0 -8 0 8 #fcfcfc #000000 #000000 0 256;
#X obj 51 152 *~ 0.4;
#X obj 98 152 *~ 0.2;
#X obj 145 152 *~ 0.1;
#X obj 4 185 +~, f 10;
#X obj 98 185 +~, f 10;
#X obj 51 208 +~, f 10;
#X obj 51 229 *~ 0.5;
#X msg 288 2 5000;
#X obj 61 40 print freq;
#X connect 1 0 4 0;
#X connect 1 0 8 0;
#X connect 1 0 9 0;
#X connect 1 0 10 0;
#X connect 1 0 21 0;
#X connect 2 0 3 0;
#X connect 2 0 3 1;
#X connect 4 0 16 0;
#X connect 5 0 13 0;
#X connect 6 0 14 0;
#X connect 7 0 15 0;
#X connect 8 0 5 0;
#X connect 9 0 6 0;
#X connect 10 0 7 0;
#X connect 12 0 11 0;
#X connect 13 0 16 1;
#X connect 14 0 17 0;
#X connect 15 0 17 1;
#X connect 16 0 18 0;
#X connect 17 0 18 1;
#X connect 18 0 19 0;
#X connect 19 0 2 0;
