#N canvas 1035 3 687 895 8;
#X declare -path else;
#X obj 4 4 declare -path else;
#X obj 62 38 else/keyboard 14 45 2 3 0 0 empty empty;
#X obj 2 394 out~;
#X obj 62 118 sfont~ FlorestanAhhChoir.sf2;
#X msg 85 87 transp 0;
#X msg 136 87 transp 50;
#X msg 193 87 transp -50;
#X obj 265 38 setdsp~;
#X obj 159 287 readsf~;
#X obj 2 365 receive~ out;
#X obj 159 308 send~ out;
#X msg 159 267 open click.wav \, start;
#X obj 159 249 metro 1000;
#X obj 159 226 bng 15 250 50 0 empty empty empty 0 -8 0 8 #fcfcfc #000000 #000000;
#X obj 69 365 receive~ out1;
#X obj 62 139 send~ out1;
#X connect 1 0 3 0;
#X connect 3 0 15 0;
#X connect 4 0 3 0;
#X connect 5 0 3 0;
#X connect 6 0 3 0;
#X connect 8 0 10 0;
#X connect 9 0 2 0;
#X connect 11 0 8 0;
#X connect 12 0 11 0;
#X connect 13 0 12 0;
#X connect 14 0 2 0;
