#N canvas -41 55 764 787 8;
#X declare -path else;
#X obj 275 362 declare -path else;
#X obj 26 73 midi2freq;
#X obj 26 101 osc~;
#X obj 26 122 *~ 0.2;
#X obj 78 73 midi2freq;
#X obj 78 101 osc~;
#X obj 78 122 *~ 0.2;
#X obj 133 73 midi2freq;
#X obj 133 101 osc~;
#X obj 133 122 *~ 0.2;
#X obj 26 144 gain~ 1 0 20 0 0;
#X obj 26 251 out~;
#X obj 324 285 setdsp~;
#X msg 26 13 60;
#X msg 78 12 60.5;
#X msg 133 12 59.5;
#X obj 213 18 nbx 5 14 -1e+37 1e+37 0 0 empty empty empty 0 -8 0 8 #fcfcfc #000000 #000000 0 256;
#X connect 1 0 2 0;
#X connect 2 0 3 0;
#X connect 4 0 5 0;
#X connect 5 0 6 0;
#X connect 6 0 10 0;
#X connect 7 0 8 0;
#X connect 8 0 9 0;
#X connect 10 0 11 0;
#X connect 13 0 1 0;
#X connect 13 0 4 0;
#X connect 13 0 7 0;
#X connect 14 0 4 0;
#X connect 15 0 7 0;
#X connect 16 0 7 0;
#X connect 16 0 4 0;
#X connect 16 0 1 0;
