#N canvas 773 171 1086 615 8;
#X obj 165 171 line~;
#X obj 276 116 delay 1000 1 msec;
#X obj 28 202 *~, f 28;
#X obj 28 229 dac~;
#X obj 28 54 osc~ 440;
#X msg 165 110 0 \, 0.9 250;
#X msg 276 137 0.9 \, 0 250;
#X obj 358 68 - 250;
#X obj 187 18 r start @hv_event;
#X obj 187 39 bng 15 250 50 0 empty empty empty 0 -8 0 8 #fcfcfc #000000 #000000;
#X obj 28 18 r freq @hv_param 100 1000 440;
#X obj 358 47 r duration @hv_param 4000 6000 5000;
#X connect 0 0 2 1;
#X connect 1 0 6 0;
#X connect 2 0 3 0;
#X connect 2 0 3 1;
#X connect 4 0 2 0;
#X connect 5 0 0 0;
#X connect 6 0 0 0;
#X connect 7 0 1 1;
#X connect 8 0 9 0;
#X connect 9 0 5 0;
#X connect 9 0 1 0;
#X connect 10 0 4 0;
#X connect 11 0 7 0;
