#N canvas 220 21 1480 920 8;
#X declare -path else;
#X obj 490 4 declare -path else;
#X obj 490 22 py4pd -lib pd-ji;
#X obj 490 41 py4pd -lib py4pd;
#X obj 11 219 modulationnotes, f 44;
#X obj 149 55 py.nth None 0;
#X obj 11 49 py.nth None 0;
#X obj 11 70 py.nth None 3;
#X msg 228 192 15;
#X obj 325 177 py2pd;
#X obj 325 215 s note;
#X obj 149 34 diamond-identity;
#X obj 11 29 diamond-identity;
#X obj 11 122 rangereduce None 5500 6700;
#X obj 24 144 py2pd;
#X obj 24 165 s note;
#X obj 11 95 rt2mc None 6000;
#X obj 155 143 py2pd;
#X obj 155 164 s note;
#X msg 11 10 380 240 278 361;
#N canvas 379 323 450 543 iterate 0;
#X obj 6 12 inlet;
#X obj 6 75 * 0.01;
#X msg 6 154 on \$1;
#X obj 6 175 outlet;
#X obj 6 33 iterate;
#X obj 6 96 cyclone/round 1 @nearest 0;
#X connect 0 0 4 0;
#X connect 1 0 5 0;
#X connect 2 0 3 0;
#X connect 4 0 1 0;
#X connect 5 0 2 0;
#X restore 6 362 pd iterate;
#X msg 83 363 flush;
#X obj 6 385 keyboard 17 60 3 3 0 0 empty empty;
#X obj 337 252 r note;
#X obj 337 352 dac~;
#X obj 337 316 *~ 3;
#X obj 325 53 diamond;
#X obj 500 386 s note;
#X msg 500 65 6000;
#X msg 510 83 6088 6493 5547 6000;
#X msg 519 121 6084;
#X obj 589 25 text;
#N canvas 746 103 1054 634 (subpatch) 0;
#X msg 747 62 write harmonics.txt;
#X msg 275 112 read harmonics.txt;
#X msg 460 137 write harmonics.txt;
#X obj 276 27 loadbang;
#X obj 360 235 outlet;
#X obj 436 53 delay 2000 1 msec;
#X obj 434 99 metro 1000;
#X connect 1 0 4 0;
#X connect 2 0 4 0;
#X connect 3 0 1 0;
#X connect 3 0 5 0;
#X connect 5 0 6 0;
#X connect 6 0 2 0;
#X restore 589 4 pd;
#X obj 423 50 random 32;
#X obj 423 23 bng 15 250 50 0 empty empty empty 0 -8 0 8 #fcfcfc #000000 #000000;
#X obj 423 71 nbx 5 14 -1e+37 1e+37 0 0 empty empty empty 0 -8 0 8 #fcfcfc #000000 #000000 0 256;
#X msg 540 159 5200 6084 6400 6666;
#X msg 549 178 5200 5400 6400 6600 6169;
#X msg 528 139 5949 6084 5466 6400;
#X obj 270 331 mc2n;
#X obj 270 352 print played;
#X obj 394 314 vu 8 80 empty empty -1 -8 0 8 #404040 #000000 0 0;
#X obj 364 351 vu~;
#X msg 149 15 20 23 27 31 35 38 41;
#X msg 557 229 5641 5883 6160 6400 6610 5552 5684;
#X obj 149 101 rt2mc None 6400;
#X obj 6 344 t a b, f 16;
#X obj 149 76 py.nth None 0;
#X obj 149 122 rangereduce None 4500 6900;
#X obj 337 295 pd-ji/ji-player -sf celesta;
#X obj 6 324 r note;
#X msg 564 248 5641 4960 6400 6752 5684 6160;
#X msg 402 428 6800 6301.96 4786.31 5368.83 5803.91 6151.32 6440.53 6688.27;
#X msg 562 286 4960 6160;
#X msg 569 322 6800 7301 4786 5368 5803 6151;
#X msg 566 303 4960 6160 6800;
#X msg 574 343 6413 5915 6800 4982 5417 5765;
#X obj 139 264 metro 1000;
#X obj 139 240 tgl 15 0 empty empty empty 0 -8 0 8 #fcfcfc #000000 #000000 0 1;
#X obj 139 306 readsf~;
#X msg 139 285 open up.wav \, 1;
#X obj 139 327 dac~;
#X msg 571 103 6084;
#X obj 325 74 py.nth None 0;
#X obj 397 185 print;
#X obj 405 234 py.print;
#X obj 325 135 rangereduce None 4800 7400;
#X obj 325 114 rt2mc None 5186;
#X obj 325 95 py.nth None 1;
#X msg 325 35 25;
#N canvas 727 32 1044 869 Utonalidade 1;
#X obj 74 181 py2pd;
#X obj 74 78 py.nth None 1;
#X obj 74 234 s note;
#X obj 74 57 diamond-identity;
#X msg 198 19 11 7 9 19 97 1997;
#X obj 74 118 rt2mc None 6600;
#X obj 74 139 rangereduce None 6000 7200;
#X obj 74 99 py.nth None 0;
#X obj 119 234 display;
#X msg 74 19 11 7 9 19 97 1997 3 25;
#X msg 297 20 11 7 9 19 97;
#X msg 441 21 11 7 9;
#X obj 74 202 py.print;
#X msg 368 21 11 7 9;
#X connect 0 0 2 0;
#X connect 0 0 8 0;
#X connect 0 0 12 0;
#X connect 1 0 7 0;
#X connect 3 0 1 0;
#X connect 4 0 3 0;
#X connect 5 0 6 0;
#X connect 6 0 0 0;
#X connect 7 0 5 0;
#X connect 9 0 3 0;
#X connect 10 0 3 0;
#X connect 11 0 3 0;
#X connect 13 0 3 0;
#X restore 272 12 pd Utonalidade;
#X connect 4 0 46 0;
#X connect 5 0 6 0;
#X connect 6 0 15 0;
#X connect 7 0 3 2;
#X connect 8 0 9 0;
#X connect 8 0 63 0;
#X connect 8 0 64 0;
#X connect 10 0 4 0;
#X connect 11 0 5 0;
#X connect 12 0 3 0;
#X connect 12 0 13 0;
#X connect 13 0 14 0;
#X connect 15 0 12 0;
#X connect 16 0 17 0;
#X connect 18 0 11 0;
#X connect 19 0 21 0;
#X connect 20 0 21 0;
#X connect 22 0 38 0;
#X connect 22 0 48 0;
#X connect 24 0 23 0;
#X connect 24 0 23 1;
#X connect 24 0 41 0;
#X connect 25 0 62 0;
#X connect 27 0 26 0;
#X connect 28 0 26 0;
#X connect 29 0 26 0;
#X connect 31 0 30 0;
#X connect 32 0 34 0;
#X connect 33 0 32 0;
#X connect 35 0 26 0;
#X connect 36 0 26 0;
#X connect 37 0 26 0;
#X connect 38 0 39 0;
#X connect 41 0 40 0;
#X connect 42 0 10 0;
#X connect 43 0 26 0;
#X connect 44 0 47 0;
#X connect 45 0 19 0;
#X connect 45 1 20 0;
#X connect 46 0 44 0;
#X connect 47 0 3 1;
#X connect 47 0 16 0;
#X connect 48 0 24 0;
#X connect 49 0 45 0;
#X connect 50 0 26 0;
#X connect 52 0 26 0;
#X connect 53 0 26 0;
#X connect 54 0 26 0;
#X connect 55 0 26 0;
#X connect 56 0 59 0;
#X connect 57 0 56 0;
#X connect 58 0 60 0;
#X connect 59 0 58 0;
#X connect 62 0 67 0;
#X connect 65 0 8 0;
#X connect 65 0 3 1;
#X connect 66 0 65 0;
#X connect 67 0 66 0;
#X connect 68 0 25 0;
