#N canvas 393 44 1480 920 8;
#X declare -path else;
#X obj 490 4 declare -path else;
#X obj 490 22 py4pd -lib pd-ji;
#X obj 490 41 py4pd -lib py4pd;
#X obj 11 219 modulationnotes, f 44;
#X obj 149 55 py.nth None 0;
#X obj 149 76 py.nth None 3;
#X obj 11 49 py.nth None 0;
#X obj 11 70 py.nth None 3;
#X msg 228 192 15;
#X obj 325 74 py.nth None 0;
#X obj 325 95 py.nth None 0;
#X obj 325 154 py2pd;
#X obj 325 175 s note;
#X obj 149 34 diamond-identity;
#X obj 11 29 diamond-identity;
#X obj 149 101 rt2mc None 6400;
#X obj 195 249 py2pd;
#X obj 25 251 py2pd;
#X obj 11 122 rangereduce None 5500 6700;
#X obj 149 122 rangereduce None 5500 6700;
#X obj 67 152 py2pd;
#X obj 67 173 s note;
#X obj 11 95 rt2mc None 6000;
#X obj 178 157 py2pd;
#X obj 178 178 s note;
#X msg 11 10 380 240 278 361;
#X obj 25 348 keyboard 17 60 2 3 0 0 empty empty;
#N canvas 379 323 450 543 iterate 0;
#X obj 6 12 inlet;
#X obj 6 33 py.iterate;
#X obj 6 54 py2pd;
#X obj 6 75 * 0.01;
#X msg 6 154 on \$1;
#X obj 6 175 outlet;
#X obj 6 96 cyclone/round;
#X connect 0 0 1 0;
#X connect 1 0 2 0;
#X connect 2 0 3 0;
#X connect 3 0 6 0;
#X connect 4 0 5 0;
#X connect 6 0 4 0;
#X restore 25 289 pd iterate;
#X msg 34 317 flush;
#X obj 83 289 print partida;
#N canvas 379 323 450 543 iterate 0;
#X obj 6 12 inlet;
#X obj 6 33 py.iterate;
#X obj 6 54 py2pd;
#X obj 6 75 * 0.01;
#X msg 6 154 on \$1;
#X obj 6 175 outlet;
#X obj 6 96 cyclone/round;
#X connect 0 0 1 0;
#X connect 1 0 2 0;
#X connect 2 0 3 0;
#X connect 3 0 6 0;
#X connect 4 0 5 0;
#X connect 6 0 4 0;
#X restore 195 275 pd iterate;
#X msg 266 315 flush;
#X obj 255 275 print partida;
#X obj 266 348 keyboard 17 60 2 3 0 0 empty empty;
#X obj 448 221 r note;
#X obj 448 321 dac~;
#X obj 448 285 *~ 3;
#X obj 325 53 diamond;
#X obj 325 114 rt2mc None 6400;
#X msg 325 35 7;
#X obj 549 301 else/meter~;
#X obj 325 135 rangereduce None 4400 7000;
#X obj 551 238 s note;
#X msg 552 71 6000;
#X msg 562 89 6088 6493 5547 6000;
#X msg 571 111 6084;
#X obj 589 25 text;
#N canvas 746 103 1054 634 (subpatch) 0;
#X msg 747 62 write harmonics.txt;
#X msg 275 112 read harmonics.txt;
#X msg 460 137 write harmonics.txt;
#X obj 276 27 loadbang;
#X obj 360 235 outlet;
#X obj 436 53 delay 2000 1 msec;
#X obj 434 99 metro 1000;
#X connect 1 0 4 0;
#X connect 2 0 4 0;
#X connect 3 0 1 0;
#X connect 3 0 5 0;
#X connect 5 0 6 0;
#X connect 6 0 2 0;
#X restore 589 4 pd;
#X obj 423 50 random 32;
#X obj 423 23 bng 15 250 50 0 empty empty empty 0 -8 0 8 #fcfcfc #000000 #000000;
#X obj 423 71 nbx 5 14 -1e+37 1e+37 0 0 empty empty empty 0 -8 0 8 #fcfcfc #000000 #000000 0 256;
#X msg 149 15 37 5 7 3;
#X msg 587 172 5200 6400 6600 6169;
#X obj 448 264 pd-ji/ji-player -sf choir;
#X msg 582 152 5200 6084 6400 6666;
#X msg 594 193 5200 5400 6400 6600 6169;
#X msg 582 132 5949 6084 5466 6400;
#X msg 598 212 5400 5600 5950 6600;
#X msg 612 235 5400 5950 6600 7150;
#X obj 381 300 mc2n;
#X msg 351 191 5400 5950 6600 7150;
#X obj 381 321 print played;
#X connect 4 0 5 0;
#X connect 5 0 15 0;
#X connect 6 0 7 0;
#X connect 7 0 22 0;
#X connect 8 0 3 2;
#X connect 9 0 10 0;
#X connect 10 0 38 0;
#X connect 11 0 12 0;
#X connect 13 0 4 0;
#X connect 14 0 6 0;
#X connect 15 0 19 0;
#X connect 16 0 30 0;
#X connect 16 0 32 0;
#X connect 17 0 27 0;
#X connect 17 0 29 0;
#X connect 18 0 3 0;
#X connect 18 0 17 0;
#X connect 18 0 20 0;
#X connect 19 0 3 1;
#X connect 19 0 16 0;
#X connect 19 0 23 0;
#X connect 20 0 21 0;
#X connect 22 0 18 0;
#X connect 23 0 24 0;
#X connect 25 0 14 0;
#X connect 27 0 26 0;
#X connect 28 0 26 0;
#X connect 30 0 33 0;
#X connect 31 0 33 0;
#X connect 34 0 53 0;
#X connect 34 0 59 0;
#X connect 36 0 35 0;
#X connect 36 0 35 1;
#X connect 36 0 40 0;
#X connect 37 0 9 0;
#X connect 38 0 41 0;
#X connect 39 0 37 0;
#X connect 41 0 11 0;
#X connect 43 0 42 0;
#X connect 44 0 42 0;
#X connect 45 0 42 0;
#X connect 47 0 46 0;
#X connect 48 0 50 0;
#X connect 49 0 48 0;
#X connect 51 0 13 0;
#X connect 52 0 42 0;
#X connect 53 0 36 0;
#X connect 54 0 42 0;
#X connect 55 0 42 0;
#X connect 56 0 42 0;
#X connect 57 0 42 0;
#X connect 58 0 42 0;
#X connect 59 0 61 0;
