#N canvas 118 4 1039 873 8;
#X obj 6 384 tabwrite PartialTracking;
#X obj 7 88 t a a, f 33;
#X obj 7 109 unpack f f;
#X obj 6 132 ftom;
#X obj 7 67 sigmund~ -hop 32768 -npeak 30 peaks;
#X obj 123 318 int;
#X obj 123 339 + 1;
#X obj 123 360 % 60;
#X obj 6 153 t f f;
#X obj 6 219 spigot;
#X obj 6 240 t f b;
#X obj 7 6 adc~ 1;
#X obj 179 343 tabread PartialTracking;
#X obj 179 321 else/loop 60;
#X obj 179 275 loadbang;
#X obj 179 298 metro 1 1 sec;
#X obj 33 189 expr if($f1 > 45 && $f1 < 75 \, 1 \, 0);
#X obj 55 6 array define -yrange 4500 7500 PartialTracking 60;
#X obj 179 365 else/midi2note;
#X obj 308 343 tabread PartialTracking;
#X obj 308 321 else/loop 60;
#X obj 308 275 loadbang;
#X obj 308 298 metro 1 1 sec;
#X obj 308 368 mtof;
#X obj 179 386 s ui_notes;
#X obj 308 389 s ui_freqs;
#N canvas 566 127 1073 737 freq 0;
#X obj 197 89 t f f, f 36;
#X obj 374 119 expr $f1 - 0.05 * $f1;
#X obj 374 140 t b f, f 14;
#X obj 374 161 delay 1 1 msec;
#X msg 374 193 0 454.3;
#X obj 197 131 t f f;
#X msg 219 151 set 0 \$1;
#X obj 51 272 *~;
#X obj 4 131 osc~ 440;
#X obj 51 131 osc~ 440;
#X obj 98 131 osc~ 440;
#X obj 145 131 osc~ 440;
#X obj 4 185 +~, f 10;
#X obj 98 185 +~, f 10;
#X obj 51 208 +~, f 10;
#X obj 197 240 line~;
#X obj 51 293 outlet~;
#X obj 4 29 unpack f f, f 33;
#X obj 4 6 inlet;
#X msg 197 178 1 \$1;
#X obj 197 110 expr 0.1 * $f1;
#X obj 51 229 *~ 0.15;
#X obj 51 105 * 2;
#X obj 98 106 * 3;
#X obj 145 106 * 4;
#X connect 0 0 20 0;
#X connect 0 1 1 0;
#X connect 1 0 2 0;
#X connect 2 0 3 0;
#X connect 2 1 3 1;
#X connect 3 0 4 0;
#X connect 4 0 15 0;
#X connect 5 0 19 0;
#X connect 5 1 6 0;
#X connect 6 0 4 0;
#X connect 7 0 16 0;
#X connect 8 0 12 0;
#X connect 9 0 12 1;
#X connect 10 0 13 0;
#X connect 11 0 13 1;
#X connect 12 0 14 0;
#X connect 13 0 14 1;
#X connect 14 0 21 0;
#X connect 15 0 7 1;
#X connect 17 0 8 0;
#X connect 17 0 22 0;
#X connect 17 0 23 0;
#X connect 17 0 24 0;
#X connect 17 1 0 0;
#X connect 18 0 17 0;
#X connect 19 0 15 0;
#X connect 20 0 5 0;
#X connect 21 0 7 0;
#X connect 22 0 9 0;
#X connect 23 0 10 0;
#X connect 24 0 11 0;
#X restore 315 196 pd freq;
#X obj 315 230 dac~;
#X obj 315 106 random 60;
#X obj 315 176 list;
#X obj 315 61 metro 6000;
#X obj 315 39 loadbang;
#X obj 377 106 expr random(3000 \, 5000);
#X obj 315 82 t b b, f 13;
#X obj 315 129 tabread PartialTracking;
#X obj 242 171 nbx 5 14 -1e+37 1e+37 0 0 empty empty empty 0 -8 0 8 #fcfcfc #000000 #000000 0 256;
#X obj 315 150 mtof;
#X connect 1 0 2 0;
#X connect 2 1 3 0;
#X connect 3 0 8 0;
#X connect 4 0 1 0;
#X connect 5 0 6 0;
#X connect 6 0 7 0;
#X connect 7 0 0 1;
#X connect 7 0 5 1;
#X connect 8 0 9 0;
#X connect 8 1 16 0;
#X connect 9 0 10 0;
#X connect 10 0 0 0;
#X connect 10 1 5 0;
#X connect 11 0 4 0;
#X connect 12 0 18 0;
#X connect 13 0 12 0;
#X connect 14 0 15 0;
#X connect 15 0 13 0;
#X connect 16 0 9 1;
#X connect 18 0 24 0;
#X connect 19 0 23 0;
#X connect 20 0 19 0;
#X connect 21 0 22 0;
#X connect 22 0 20 0;
#X connect 23 0 25 0;
#X connect 26 0 27 0;
#X connect 26 0 27 1;
#X connect 28 0 34 0;
#X connect 29 0 26 0;
#X connect 30 0 33 0;
#X connect 31 0 30 0;
#X connect 32 0 29 1;
#X connect 33 0 28 0;
#X connect 33 1 32 0;
#X connect 34 0 36 0;
#X connect 36 0 29 0;
