#N canvas 1045 138 688 691 8;
#X declare -path else;
#X msg 46 30 start;
#X msg 83 30 stop;
#X msg 7 30 ssl 1;
#X obj 7 3 loadbang;
#X obj 7 109 pd-server/server 2023;
#X obj 245 5 declare -path else;
#X obj 210 321 print;
#X obj 210 298 py4pd pyFunc setStartTime;
#X msg 260 272 reload;
#X obj 195 45 py4pd pyFunc resetStartTime;
#X obj 195 5 loadbang;
#X msg 195 26 run;
#X msg 210 189 run 15;
#X obj 7 128 route name;
#X obj 26 149 display;
#X obj 7 149 bng 15 250 50 0 empty empty empty 0 -8 0 8 #fcfcfc #000000 #000000;
#X obj 7 202 nbx 5 14 -1e+37 1e+37 0 0 empty empty empty 0 -8 0 8 #fcfcfc #000000 #000000 0 256;
#X obj 7 175 count 1 40;
#X connect 0 0 4 0;
#X connect 1 0 4 0;
#X connect 2 0 4 0;
#X connect 3 0 2 0;
#X connect 4 0 13 0;
#X connect 7 0 6 0;
#X connect 8 0 7 0;
#X connect 10 0 11 0;
#X connect 11 0 9 0;
#X connect 12 0 7 0;
#X connect 13 0 14 0;
#X connect 13 0 15 0;
#X connect 15 0 17 0;
#X connect 17 0 16 0;
