#N canvas 668 234 826 636 8;
#X declare -path else;
#X obj 7 3 loadbang;
#X obj 354 5 loadbang;
#X obj 7 122 bng 15 250 50 0 empty empty empty 0 -8 0 8 #fcfcfc #000000 #000000;
#X obj 7 170 nbx 3 18 -1e+37 1e+37 0 0 empty empty empty 0 -8 0 12 #fcfcfc #000000 #000000 0 256;
#X obj 7 151 count 1 40;
#X obj 36 48 bng 15 250 50 0 empty empty empty 0 -8 0 8 #fcfcfc #000000 #000000;
#X obj 36 68 s fim;
#X obj 371 26 r fim;
#X obj 28 100 r fim;
#X obj 65 151 count 1 40;
#X obj 86 100 r fim;
#X obj 65 170 nbx 3 18 -1e+37 1e+37 0 0 empty empty empty 0 -8 0 12 #fcfcfc #000000 #000000 0 256;
#X msg 86 121 1;
#X msg 28 121 1;
#X obj 6 218 bng 35 250 50 0 empty empty empty 0 -8 0 8 #ff0400 #ffffff #ffffff;
#N canvas 441 315 806 508 server 0;
#X msg 46 52 start;
#X msg 83 52 stop;
#X msg 7 52 ssl 1;
#X obj 7 82 pd-server/server 2023;
#X obj 46 33 delay 10 1 msec;
#X msg 116 53 getip;
#X obj 7 4 inlet;
#X obj 7 156 outlet;
#X obj 58 181 outlet;
#X obj 110 158 outlet;
#X obj 162 181 outlet;
#X obj 30 202 print device;
#X obj 7 110 route name fim ok freqs amps, f 42;
#X obj 185 161 outlet;
#X obj 264 57 loadbang;
#X obj 264 99 s mkqrcode;
#X obj 264 78 delay 2000 1 msec;
#X connect 0 0 3 0;
#X connect 1 0 3 0;
#X connect 2 0 3 0;
#X connect 3 0 12 0;
#X connect 4 0 0 0;
#X connect 5 0 3 0;
#X connect 6 0 2 0;
#X connect 6 0 4 0;
#X connect 12 0 7 0;
#X connect 12 0 11 0;
#X connect 12 1 8 0;
#X connect 12 2 9 0;
#X connect 12 3 10 0;
#X connect 12 4 13 0;
#X connect 14 0 16 0;
#X connect 16 0 15 0;
#X restore 7 23 pd server;
#X f 24;
#X text 44 225 Click here to start the performance!;
#X text 30 261 10s for sync... You can change it.;
#N canvas 10 682 450 300 config 0;
#X obj 3 3 declare -path else;
#X obj 3 23 py4pd -lib pyFunc;
#X restore 57 3 pd config;
#X obj 124 43 print amps;
#N canvas 536 418 450 431 else 0;
#X obj 36 33 freq2midi;
#X obj 36 84 else/pitch2note;
#X obj 90 33 loadbang;
#X msg 90 52 sharp;
#X obj 36 9 inlet;
#X obj 36 105 route list;
#X obj 36 126 outlet;
#X connect 0 0 1 0;
#X connect 1 0 5 0;
#X connect 2 0 3 0;
#X connect 3 0 1 0;
#X connect 4 0 0 0;
#X connect 5 0 6 0;
#X restore 104 63 pd else;
#X obj 95 82 print freq;
#X obj 354 64 resetTime;
#X obj 354 46 bng 15 250 50 0 empty empty empty 0 -8 0 8 #fcfcfc #000000 #000000;
#X obj 6 291 setStartTime;
#X obj 234 142 mkqrcode 330 330;
#X obj 234 115 r mkqrcode;
#X msg 6 261 10;
#X connect 0 0 15 0;
#X connect 1 0 23 0;
#X connect 2 0 4 0;
#X connect 4 0 3 0;
#X connect 5 0 6 0;
#X connect 7 0 23 0;
#X connect 8 0 13 0;
#X connect 9 0 11 0;
#X connect 10 0 12 0;
#X connect 12 0 9 0;
#X connect 13 0 4 0;
#X connect 14 0 27 0;
#X connect 15 0 2 0;
#X connect 15 1 5 0;
#X connect 15 2 9 0;
#X connect 15 3 20 0;
#X connect 15 3 21 0;
#X connect 15 4 19 0;
#X connect 23 0 22 0;
#X connect 26 0 25 0;
#X connect 27 0 24 0;
