#N canvas 507 -10 578 712 8;
#X declare -path else;
#X obj 7 3 loadbang;
#X obj 5 63 loadbang;
#X obj 22 84 r fim;
#N canvas 458 67 1454 856 server 0;
#X msg 127 52 start;
#X msg 164 52 stop;
#X msg 7 52 ssl 1;
#X obj 7 120 pd-server/server 2023;
#X obj 127 33 delay 10 1 msec;
#X msg 197 53 getip;
#X obj 7 4 inlet;
#X obj 7 193 outlet;
#X obj 58 218 outlet;
#X obj 110 195 outlet;
#X obj 162 218 outlet;
#X obj 30 239 print device;
#X obj 185 198 outlet;
#X obj 234 10 loadbang;
#X obj 234 68 s mkqrcode;
#X obj 234 31 delay 2000 1 msec;
#X obj 231 132 py4pd;
#X msg 231 109 version;
#X obj 231 153 route py4pd python, f 39;
#X obj 292 68 bng 15 250 50 0 empty empty empty 0 -8 0 8 #fcfcfc #000000 #000000;
#X obj 136 261 tgl 15 0 empty empty empty 0 -8 0 8 #fcfcfc #000000 #000000 0 1;
#X obj 136 242 expr if($f1 == 0 && $f2 == 7 && $f3 == 0 \, 1 \, 0);
#X obj 136 281 sel 0;
#X obj 136 336 print -error;
#X msg 136 299 This patch uses the version 0.7.0 of py4pd. You are using another version. This can generate problems.;
#X obj 327 196 tgl 15 0 empty empty empty 0 -8 0 8 #fcfcfc #000000 #000000 0 1;
#X obj 327 175 expr if($f1 == 3 && $f2 == 10 && $f3 > 9 \, 1 \, 0);
#X obj 444 260 sel 0;
#X obj 444 315 print -error;
#X msg 444 278 This patch uses the version 3.1 of Python. You are using another version. This can generate problems.;
#X obj 191 172 print started;
#X msg 46 51 folder /;
#X obj 7 147 route name fim ok freqs amps started play, f 42;
#X obj 240 207 outlet;
#X obj 333 46 bng 15 250 50 0 empty empty empty 0 -8 0 8 #fcfcfc #000000 #000000;
#X connect 0 0 3 0;
#X connect 1 0 3 0;
#X connect 2 0 3 0;
#X connect 3 0 32 0;
#X connect 4 0 0 0;
#X connect 5 0 3 0;
#X connect 6 0 2 0;
#X connect 6 0 4 0;
#X connect 6 0 31 0;
#X connect 13 0 15 0;
#X connect 15 0 14 0;
#X connect 15 0 19 0;
#X connect 16 0 18 0;
#X connect 17 0 16 0;
#X connect 18 0 21 0;
#X connect 18 1 26 0;
#X connect 19 0 17 0;
#X connect 20 0 22 0;
#X connect 21 0 20 0;
#X connect 22 0 24 0;
#X connect 24 0 23 0;
#X connect 25 0 27 0;
#X connect 26 0 25 0;
#X connect 27 0 29 0;
#X connect 29 0 28 0;
#X connect 31 0 3 0;
#X connect 32 0 7 0;
#X connect 32 0 11 0;
#X connect 32 1 8 0;
#X connect 32 2 9 0;
#X connect 32 3 10 0;
#X connect 32 4 12 0;
#X connect 32 5 30 0;
#X connect 32 6 33 0;
#X connect 34 0 14 0;
#X restore 7 23 pd server;
#X f 24;
#N canvas 205 476 450 300 config 0;
#X obj 3 32 declare -path else;
#X obj 3 50 py4pd -lib pyFunc;
#X restore 57 3 pd config;
#X obj 5 104 bng 15 250 50 0 empty empty empty 0 -8 0 8 #fcfcfc #000000 #000000;
#X obj 5 147 r mkqrcode;
#X obj 124 109 dac~, f 25;
#X obj 124 44 unpack f f;
#X msg 171 61 dur \$1;
#X msg 124 61 note \$1;
#X obj 181 43 print note_dur;
#X obj 30 44 print fim;
#X obj 124 90 pd-ji/ji-player -sf choir;
#X msg 214 61 6000;
#X obj 113 3 py4pd -lib py4pd;
#X obj 5 174 mkqrcode 330 330;
#X obj 5 122 resetTime;
#X connect 0 0 3 0;
#X connect 1 0 5 0;
#X connect 2 0 5 0;
#X connect 3 1 12 0;
#X connect 3 5 8 0;
#X connect 3 5 11 0;
#X connect 5 0 17 0;
#X connect 6 0 16 0;
#X connect 8 0 10 0;
#X connect 8 1 9 0;
#X connect 9 0 13 0;
#X connect 10 0 13 0;
#X connect 13 0 7 0;
#X connect 13 1 7 1;
#X connect 14 0 13 0;
