#N canvas 1045 138 688 691 8;
#X declare -path else;
#X msg 46 52 start;
#X msg 83 52 stop;
#X msg 7 52 ssl 1;
#X obj 7 3 loadbang;
#X obj 7 91 pd-server/server 2023;
#X obj 245 5 declare -path else;
#X obj 210 321 print;
#X obj 210 298 py4pd pyFunc setStartTime;
#X msg 260 272 reload;
#X obj 195 71 py4pd pyFunc resetStartTime;
#X obj 195 5 loadbang;
#X msg 195 52 run;
#X obj 7 222 bng 15 250 50 0 empty empty empty 0 -8 0 8 #fcfcfc #000000 #000000;
#X obj 7 270 nbx 3 18 -1e+37 1e+37 0 0 empty empty empty 0 -8 0 12 #fcfcfc #000000 #000000 0 256;
#X obj 7 251 count 1 40;
#X obj 46 33 delay 10 1 msec;
#X obj 42 128 bng 15 250 50 0 empty empty empty 0 -8 0 8 #fcfcfc #000000 #000000;
#X obj 42 148 s fim;
#X obj 212 26 r fim;
#X obj 28 200 r fim;
#X obj 80 251 count 1 40;
#X obj 101 200 r fim;
#X obj 80 270 nbx 3 18 -1e+37 1e+37 0 0 empty empty empty 0 -8 0 12 #fcfcfc #000000 #000000 0 256;
#X msg 101 221 1;
#X msg 28 221 1;
#X obj 97 143 bng 15 250 50 0 empty empty empty 0 -8 0 8 #fcfcfc #000000 #000000;
#X obj 210 229 bng 35 250 50 0 empty empty empty 0 -8 0 8 #fcfcfc #000000 #000000;
#X obj 15 174 print device;
#X msg 116 53 getip;
#X msg 210 272 run 1;
#X obj 7 110 route name fim ok freqsAndAmps;
#X obj 117 142 print freqs;
#X connect 0 0 4 0;
#X connect 1 0 4 0;
#X connect 2 0 4 0;
#X connect 3 0 2 0;
#X connect 3 0 15 0;
#X connect 4 0 30 0;
#X connect 7 0 6 0;
#X connect 8 0 7 0;
#X connect 10 0 11 0;
#X connect 11 0 9 0;
#X connect 12 0 14 0;
#X connect 14 0 13 0;
#X connect 15 0 0 0;
#X connect 16 0 17 0;
#X connect 18 0 11 0;
#X connect 19 0 24 0;
#X connect 20 0 22 0;
#X connect 21 0 23 0;
#X connect 23 0 20 0;
#X connect 24 0 14 0;
#X connect 26 0 29 0;
#X connect 28 0 4 0;
#X connect 29 0 7 0;
#X connect 30 0 12 0;
#X connect 30 0 27 0;
#X connect 30 1 16 0;
#X connect 30 2 20 0;
#X connect 30 2 25 0;
#X connect 30 3 31 0;
