#N canvas 609 218 810 623 8;
#X obj 50 41 r fundamental;
#X obj 124 41 r duracao;
#N canvas 3 267 697 593 (subpatch) 1;
#X obj 50 189 osc~, f 18;
#X obj 303 126 switch~;
#X obj 50 9 inlet;
#X obj 50 227 outlet~;
#X obj 111 10 inlet;
#X msg 239 55 0;
#X obj 175 94 delay 1000 1 msec;
#X obj 175 59 t b f;
#X obj 111 31 t b f b b, f 39;
#X msg 303 92 1;
#X msg 175 115;
#X obj 175 136 line, f 12;
#X connect 0 0 3 0;
#X connect 2 0 0 0;
#X connect 4 0 8 0;
#X connect 6 0 10 0;
#X connect 7 0 6 0;
#X connect 7 1 6 1;
#X connect 8 1 7 0;
#X connect 8 2 5 0;
#X connect 8 3 9 0;
#X connect 9 0 1 0;
#X connect 10 0 11 0;
#X restore 73 122 pd;
