#N canvas 777 21 451 286 8;
#X declare -path else;
#X obj 9 3 loadbang;
#N canvas 47 344 1169 582 server 0;
#X msg 127 52 start;
#X msg 164 52 stop;
#X msg 7 52 ssl 1;
#X obj 7 120 pd-server/server 2023;
#X obj 127 33 delay 10 1 msec;
#X msg 241 51 getip;
#X obj 7 4 inlet;
#X obj 30 239 print device;
#X obj 190 172 print started;
#X msg 46 51 folder /;
#X obj 7 147 route name fim ok freqs amps started play, f 63;
#X obj 242 15 loadbang;
#X obj 496 246 outlet;
#X obj 421 194 list;
#X msg 421 211 set https://\$1:2023;
#X obj 319 168 t b a a, f 21;
#X obj 370 229 list;
#X msg 370 246 label https://\$1:2023;
#X obj 370 267 send \$0-ipconfig;
#X connect 0 0 3 0;
#X connect 1 0 3 0;
#X connect 2 0 3 0;
#X connect 3 0 10 0;
#X connect 4 0 0 0;
#X connect 5 0 3 0;
#X connect 6 0 2 0;
#X connect 6 0 4 0;
#X connect 6 0 9 0;
#X connect 9 0 3 0;
#X connect 10 0 7 0;
#X connect 10 5 8 0;
#X connect 10 7 15 0;
#X connect 11 0 5 0;
#X connect 13 0 14 0;
#X connect 14 0 12 0;
#X connect 15 1 16 0;
#X connect 15 2 13 0;
#X connect 16 0 17 0;
#X connect 17 0 18 0;
#X restore 9 23 pd server;
#X f 24;
#N canvas 205 476 450 300 config 0;
#X obj 3 32 declare -path else;
#X restore 59 3 pd config;
#X obj 9 45 cnv 20 200 30 empty \$0-ipconfig https://192.168.15.10:2023 20 10 0 10 #dfdfdf #000000 0;
#X text 2 97 You need to install the library pd-server.;
#X connect 0 0 1 0;
