#N canvas 409 0 1398 912 8;
#X obj 230 3 r duracao;
#X obj 4 60 r freq;
#X obj 230 43 t f f, f 36;
#X obj 230 64 expr 0.05 * $f1;
#X obj 407 73 expr $f1 - 0.05 * $f1;
#X obj 407 94 t b f, f 14;
#X obj 407 115 delay 1 1 msec;
#X msg 407 147 0 250;
#X obj 230 85 t f f;
#X msg 252 105 set 0 \$1;
#X obj 230 200 line~;
#X msg 230 132 1 \$1;
#X obj 51 272 *~;
#X obj 51 300 dac~;
#X obj 4 131 osc~ 440;
#X obj 51 131 osc~ 440;
#X obj 98 131 osc~ 440;
#X obj 145 131 osc~ 440;
#X obj 51 105 * 3;
#X obj 98 106 * 5;
#X obj 145 106 * 7;
#X obj 4 38 s freq;
#X obj 4 4 nbx 5 14 -1e+37 1e+37 0 0 empty empty empty 0 -8 0 8 #fcfcfc #000000 #000000 0 256;
#X obj 51 152 *~ 0.4;
#X obj 98 152 *~ 0.2;
#X obj 145 152 *~ 0.1;
#X obj 4 185 +~, f 10;
#X obj 98 185 +~, f 10;
#X obj 51 208 +~, f 10;
#X obj 51 229 *~ 0.5;
#X msg 288 2 5000;
#X obj 381 193 adc~ 1;
#X obj 521 207 loadbang;
#X obj 570 207 bng 15 250 50 0 empty empty empty 0 -8 0 8 #fcfcfc #000000 #000000;
#X obj 521 259 bng 15 250 50 0 empty empty empty 0 -8 0 8 #fcfcfc #000000 #000000;
#X obj 521 238 metro 2500;
#X obj 521 349 tgl 15 0 empty empty empty 0 -8 0 8 #fcfcfc #000000 #000000 0 1;
#X msg 521 279 1;
#X obj 381 236 spigot;
#X obj 381 257 t a a;
#X obj 403 275 unpack f;
#X msg 403 339 0;
#X obj 381 215 sigmund~ -npeak 50 peaks;
#X obj 403 318 sel 25;
#X obj 381 361 unpack f f;
#X obj 521 300 t f b, f 16;
#X obj 428 426 array set partial-freq;
#X obj 481 387 else/count;
#X obj 428 383 t f b;
#X msg 598 350 0;
#X obj 482 6 array define -yrange 20 20000 partial-freq;
#X connect 0 0 2 0;
#X connect 1 0 14 0;
#X connect 1 0 18 0;
#X connect 1 0 19 0;
#X connect 1 0 20 0;
#X connect 2 0 3 0;
#X connect 2 1 4 0;
#X connect 3 0 8 0;
#X connect 4 0 5 0;
#X connect 5 0 6 0;
#X connect 5 1 6 1;
#X connect 6 0 7 0;
#X connect 7 0 10 0;
#X connect 8 0 11 0;
#X connect 8 1 9 0;
#X connect 9 0 7 0;
#X connect 10 0 12 1;
#X connect 11 0 10 0;
#X connect 12 0 13 0;
#X connect 12 0 13 1;
#X connect 14 0 26 0;
#X connect 15 0 23 0;
#X connect 16 0 24 0;
#X connect 17 0 25 0;
#X connect 18 0 15 0;
#X connect 19 0 16 0;
#X connect 20 0 17 0;
#X connect 22 0 21 0;
#X connect 23 0 26 1;
#X connect 24 0 27 0;
#X connect 25 0 27 1;
#X connect 26 0 28 0;
#X connect 27 0 28 1;
#X connect 28 0 29 0;
#X connect 29 0 12 0;
#X connect 30 0 2 0;
#X connect 31 0 42 0;
#X connect 32 0 35 0;
#X connect 33 0 35 0;
#X connect 34 0 37 0;
#X connect 35 0 34 0;
#X connect 36 0 38 1;
#X connect 37 0 45 0;
#X connect 38 0 39 0;
#X connect 39 0 44 0;
#X connect 39 1 40 0;
#X connect 40 0 43 0;
#X connect 41 0 36 0;
#X connect 42 0 38 0;
#X connect 43 0 41 0;
#X connect 44 1 48 0;
#X connect 45 0 36 0;
#X connect 45 1 49 0;
#X connect 47 0 46 1;
#X connect 48 0 46 0;
#X connect 48 1 47 0;
#X connect 49 0 47 0;
